<svg width="24" height="24" viewBox="0 0 24 24" fill="none" xmlns="http://www.w3.org/2000/svg">
<path fill-rule="evenodd" clip-rule="evenodd" d="M23.1094 0H0V23.9062H23.1094V0ZM4.83901 3.32895C4.85897 3.26687 4.89057 3.20947 4.93198 3.16002C4.9734 3.11058 5.02383 3.07006 5.08038 3.04079C5.13694 3.01151 5.19852 2.99405 5.2616 2.9894C5.32468 2.98475 5.38804 2.993 5.44803 3.01368C5.96992 3.19348 7.14368 3.7981 7.81626 4.87538C8.31263 4.71401 8.94044 4.91373 9.38192 5.42224C9.8884 6.00495 9.97892 6.79684 9.62746 7.29589C9.68138 7.37856 9.74108 7.48664 9.79982 7.62709C9.92355 7.92193 10.042 8.35523 10.0949 8.97978C10.6029 9.02312 11.1435 9.32194 11.5426 9.83493C11.9928 10.4137 12.1478 11.1169 12.0029 11.6777C12.1863 11.8122 12.4492 11.979 12.7506 12.124C13.1454 12.3137 13.5676 12.4477 13.947 12.4512C14.2729 12.2161 14.6345 12.0876 14.9816 12.0876C15.0745 11.4287 15.271 10.96 15.4919 10.6303C15.5603 10.5282 15.6301 10.4411 15.6975 10.3673L15.6932 10.3509C15.6915 10.3443 15.6899 10.3376 15.6884 10.331C15.2759 10.2667 14.8756 10.1361 14.5021 9.944C14.3849 9.88438 14.2704 9.8194 14.1588 9.74927C14.123 9.77632 14.0851 9.80047 14.0457 9.82148C13.4578 10.1348 12.6355 9.69498 12.2095 8.83884C11.8002 8.01706 11.9047 7.11061 12.4343 6.76248L12.4068 6.62303C12.3724 6.4524 12.3414 6.28103 12.3139 6.10904C11.7169 5.865 11.3737 5.10946 11.533 4.32056C11.7083 3.45396 12.4237 2.87622 13.1305 3.02912C13.8382 3.18202 14.2696 4.00828 14.0943 4.87438C13.986 5.40978 13.6716 5.83561 13.2802 6.04579C13.2985 6.15536 13.323 6.28436 13.3505 6.4253L13.3726 6.53736L13.4121 6.74057C13.544 6.80282 13.674 6.88799 13.7963 6.99407L13.8026 6.99905C13.8727 6.96611 13.9417 6.93073 14.0096 6.89297C14.1627 6.81079 14.3707 6.68877 14.5921 6.53139C14.9282 6.29183 15.258 5.99698 15.4828 5.66478C15.5496 5.56827 15.6073 5.46537 15.6552 5.35749C15.4915 4.65076 16.0885 3.8763 17.0061 3.61433C17.9387 3.34887 18.8486 3.71394 19.0388 4.42863C19.2294 5.14383 18.6281 5.93921 17.696 6.20467C17.202 6.34562 16.7139 6.30926 16.3364 6.13793C16.0066 6.66486 15.5314 7.07177 15.1376 7.35217C14.8978 7.52209 14.6476 7.67564 14.3885 7.81186C14.544 8.16398 14.6066 8.52656 14.5844 8.84979C14.6745 8.91006 14.7905 8.98078 14.9262 9.05001C15.2179 9.20084 15.5312 9.30192 15.854 9.34933C16.1029 8.91902 16.5685 8.55844 17.1539 8.39807C17.7624 8.23172 18.3623 8.31987 18.7879 8.59081C18.9049 8.49618 19.0339 8.38561 19.1634 8.26359C18.9709 7.95978 18.7764 7.50656 18.7764 6.97266C18.7764 6.84057 18.8271 6.71389 18.9174 6.62048C19.0077 6.52708 19.1301 6.47461 19.2578 6.47461C19.3855 6.47461 19.508 6.52708 19.5982 6.62048C19.6885 6.71389 19.7393 6.84057 19.7393 6.97266C19.7393 7.15195 19.7811 7.3188 19.8375 7.46074C19.9145 7.33125 19.9679 7.21022 19.9944 7.10065C20.0094 7.03681 20.0365 6.97666 20.074 6.92368C20.1116 6.8707 20.1589 6.82593 20.2133 6.79195C20.2676 6.75797 20.328 6.73546 20.3908 6.7257C20.4536 6.71595 20.5176 6.71914 20.5793 6.73511C20.6409 6.75108 20.6988 6.7795 20.7498 6.81873C20.8007 6.85797 20.8436 6.90724 20.8761 6.96372C20.9086 7.0202 20.9299 7.08276 20.9389 7.1478C20.9478 7.21285 20.9443 7.27909 20.9284 7.3427C20.7999 7.87412 20.4229 8.36818 20.0715 8.74022C19.836 8.98925 19.5852 9.21187 19.3661 9.38768C19.5409 10.1781 18.8914 11.0292 17.8963 11.3017C17.3147 11.4606 16.7418 11.3873 16.3205 11.1448C16.3077 11.1621 16.2954 11.1797 16.2834 11.1976C16.14 11.4117 15.9647 11.8002 15.907 12.4736C16.4481 13.0274 16.5184 14.0643 16.0288 14.9743C15.6417 15.6935 15.0057 16.1462 14.3914 16.2144C14.3846 16.2448 14.3769 16.2792 14.3697 16.3175C14.331 16.5104 14.3051 16.7057 14.2922 16.9022C14.2787 17.1253 14.2874 17.3335 14.3273 17.4979C14.3461 17.5741 14.3683 17.6304 14.3914 17.6722C14.8256 17.5427 15.3668 17.5985 15.8728 17.8659C16.2594 18.0701 16.5612 18.364 16.7504 18.6867C16.7827 18.6887 16.8236 18.6907 16.8722 18.6917C17.0128 18.6937 17.2141 18.6877 17.45 18.6543C17.9242 18.5876 18.5106 18.4138 19.02 17.9999C19.0695 17.9582 19.1266 17.9271 19.1879 17.9084C19.2493 17.8898 19.3135 17.8839 19.377 17.8912C19.4406 17.8985 19.502 17.9188 19.5579 17.951C19.6137 17.9831 19.6628 18.0264 19.7023 18.0784C19.7418 18.1304 19.7709 18.1899 19.7879 18.2537C19.8049 18.3174 19.8095 18.384 19.8014 18.4495C19.7933 18.5151 19.7726 18.5783 19.7406 18.6356C19.7086 18.6928 19.6659 18.7429 19.615 18.7828C19.3453 19.0012 19.0487 19.1814 18.733 19.3187C18.9617 19.4851 19.2005 19.626 19.4099 19.6982C19.4699 19.7189 19.5254 19.7516 19.5732 19.7945C19.621 19.8373 19.6602 19.8895 19.6885 19.948C19.7168 20.0065 19.7336 20.0702 19.7381 20.1354C19.7426 20.2007 19.7347 20.2662 19.7147 20.3283C19.6947 20.3903 19.6631 20.4477 19.6217 20.4972C19.5803 20.5466 19.5299 20.5871 19.4733 20.6164C19.4167 20.6457 19.3552 20.6631 19.2921 20.6678C19.229 20.6725 19.1657 20.6642 19.1057 20.6435C18.7504 20.521 18.4037 20.3014 18.1279 20.0957C17.9394 19.955 17.759 19.803 17.5877 19.6405L17.5795 19.6415C17.3359 19.6758 17.1207 19.6863 16.9517 19.6878C16.933 19.7813 16.9022 19.8717 16.8602 19.9567C16.5208 20.6445 15.5285 20.8233 14.6436 20.3552C13.7737 19.896 13.3317 18.9836 13.6393 18.2997C13.5229 18.1313 13.4393 17.941 13.3933 17.7394C13.3201 17.4366 13.3144 17.1154 13.3307 16.8405C13.3496 16.5471 13.392 16.256 13.4574 15.9699C13.1483 15.7388 12.9533 15.3747 12.884 14.9534C12.5479 14.9822 12.219 15.0694 11.911 15.2113C11.7211 15.2967 11.5437 15.409 11.3838 15.545C11.468 16.2089 10.936 16.9107 10.1166 17.1697C9.92725 17.2299 9.7307 17.2626 9.53262 17.2668C9.23316 17.9347 8.71994 18.4482 8.30156 18.7883C8.29261 18.7957 8.28362 18.803 8.2746 18.8102L8.26016 18.8217C8.41903 19.0787 8.48836 19.368 8.43925 19.6574C8.31071 20.4125 7.42244 20.8821 6.4557 20.7058C5.48896 20.53 4.80916 19.7745 4.93818 19.0199C5.06673 18.2649 5.95451 17.7957 6.92174 17.9715C7.13069 18.0099 7.32615 18.0751 7.50332 18.1618C7.56832 18.114 7.63668 18.0622 7.70649 18.0049C8.03195 17.7409 8.36511 17.3993 8.58128 17.0038C8.47367 16.9313 8.37821 16.8412 8.29867 16.7369C7.81963 16.7732 7.26645 16.7448 6.75516 16.695C6.42224 16.6621 6.09025 16.6199 5.75953 16.5685C5.69536 16.6926 5.60502 16.8002 5.49522 16.8833C4.95407 17.2912 4.07158 16.9909 3.52322 16.2124C3.19343 15.7443 3.06007 15.2084 3.12458 14.7681L3.1188 14.7531C3.0828 14.6602 3.04313 14.5688 2.99989 14.4792C2.8906 14.2536 2.7375 13.9951 2.54829 13.7994C2.50231 13.7534 2.46563 13.6985 2.4404 13.6377C2.41517 13.577 2.40188 13.5116 2.40133 13.4455C2.40077 13.3793 2.41295 13.3138 2.43716 13.2526C2.46137 13.1913 2.49712 13.1357 2.54232 13.089C2.58753 13.0422 2.64128 13.0052 2.70045 12.9802C2.75962 12.9551 2.82301 12.9425 2.88694 12.9431C2.95086 12.9437 3.01404 12.9574 3.07278 12.9835C3.13152 13.0096 3.18464 13.0476 3.22905 13.0951C3.48229 13.3571 3.67198 13.6654 3.8039 13.9204C3.83567 13.9114 3.86745 13.904 3.90019 13.8985C3.91656 13.7999 3.93726 13.6973 3.96374 13.5937C4.04558 13.2749 4.19483 12.8865 4.47407 12.5971C4.56487 12.5064 4.68649 12.4562 4.81272 12.4573C4.93895 12.4584 5.05971 12.5108 5.14897 12.6032C5.23823 12.6955 5.28887 12.8204 5.28996 12.951C5.29106 13.0816 5.24253 13.2074 5.15483 13.3013C5.04892 13.4109 4.95744 13.6032 4.89485 13.8487C4.87078 13.9423 4.85297 14.0355 4.84045 14.1211C5.0754 14.2656 5.29782 14.4737 5.4827 14.7362C5.67142 15.0042 5.79564 15.294 5.85582 15.5759C6.15817 15.6237 6.49951 15.6695 6.84567 15.7029C7.31219 15.7487 7.76138 15.7692 8.1292 15.7497C8.27364 15.2502 8.73197 14.795 9.35689 14.5978C9.89996 14.4259 10.4435 14.4882 10.8325 14.7248C11.0431 14.5562 11.2727 14.4145 11.5162 14.3029C11.966 14.0952 12.4492 13.9758 12.9412 13.9508C12.9976 13.7382 13.0784 13.5334 13.182 13.3407C12.8939 13.2634 12.6134 13.1583 12.3443 13.0269C12.0218 12.8717 11.7136 12.6866 11.4233 12.4741C10.7723 12.8541 9.821 12.5707 9.2062 11.7803C9.12715 11.679 9.05569 11.5716 8.99243 11.4591C8.85542 11.506 8.71354 11.5361 8.56973 11.5487C8.37746 11.5661 8.18429 11.5701 7.99151 11.5607C7.63048 11.5423 7.27056 11.5054 6.91307 11.4501C6.87956 11.4452 6.84664 11.4367 6.81486 11.4247C6.46485 11.7434 5.92226 11.9068 5.34404 11.8206C4.67435 11.721 4.14187 11.3141 3.94063 10.8111C3.5938 10.7432 3.24165 10.7087 2.88867 10.708C2.76098 10.708 2.63853 10.6555 2.54824 10.5621C2.45795 10.4687 2.40723 10.3421 2.40723 10.21C2.40723 10.0779 2.45795 9.95119 2.54824 9.85779C2.63853 9.76439 2.76098 9.71191 2.88867 9.71191C3.31716 9.71191 3.70039 9.75724 4.00322 9.81102C4.06051 9.70992 4.13321 9.61679 4.21842 9.53411C4.1963 9.50007 4.17542 9.46518 4.15584 9.42952C3.98492 9.12123 3.85156 8.65805 3.85156 7.96875C3.85156 7.83666 3.90229 7.70998 3.99257 7.61658C4.08286 7.52318 4.20532 7.4707 4.33301 7.4707C4.46069 7.4707 4.58315 7.52318 4.67344 7.61658C4.76373 7.70998 4.81445 7.83666 4.81445 7.96875C4.81445 8.52507 4.92181 8.80895 4.99162 8.93546C5.01073 8.97282 5.03507 9.00706 5.06384 9.03706C5.09397 9.05557 5.12192 9.07763 5.14713 9.1028C5.33008 9.0774 5.5241 9.0779 5.72198 9.10728C6.55006 9.2308 7.16872 9.82397 7.20964 10.4869C7.48136 10.5256 7.75461 10.5517 8.02858 10.5651C8.19757 10.572 8.35019 10.57 8.47488 10.5571C8.60824 10.5437 8.67323 10.5212 8.69153 10.5118L8.69827 10.5083C8.66216 10.0152 8.81189 9.55752 9.15035 9.26666C9.14953 9.25904 9.14889 9.2514 9.14842 9.24375C9.11087 8.60077 9.00014 8.22375 8.91637 8.02354C8.88848 7.95397 8.85294 7.88796 8.81045 7.82681C8.78431 7.80025 8.76121 7.77067 8.7416 7.73865C8.32611 7.73666 7.87644 7.52798 7.53703 7.13701C7.13165 6.67034 6.99299 6.07019 7.13357 5.59307C7.10079 5.56144 7.07243 5.52523 7.04932 5.48549C6.97472 5.35789 6.89018 5.2368 6.79656 5.12341C6.27468 5.55322 5.15483 5.97656 3.37012 5.97656C3.24243 5.97656 3.11997 5.92409 3.02968 5.83069C2.9394 5.73729 2.88867 5.61061 2.88867 5.47852C2.88867 5.34643 2.9394 5.21975 3.02968 5.12634C3.11997 5.03294 3.24243 4.98047 3.37012 4.98047C4.82167 4.98047 5.66854 4.67716 6.05273 4.44457C5.69742 4.19505 5.35271 4.03119 5.14376 3.95897C5.08375 3.93832 5.02827 3.90564 4.98047 3.86279C4.93268 3.81995 4.89351 3.76778 4.86521 3.70927C4.83691 3.65077 4.82003 3.58706 4.81553 3.52181C4.81104 3.45655 4.81901 3.39101 4.83901 3.32895Z" fill="#807DFF"/>
</svg>
